<?xml version="1.0" encoding="utf-8"?>
<!-- Generator: Adobe Illustrator 19.2.1, SVG Export Plug-In . SVG Version: 6.00 Build 0)  -->
<svg version="1.1" id="layer" xmlns="http://www.w3.org/2000/svg" xmlns:xlink="http://www.w3.org/1999/xlink" x="0px" y="0px"
	 viewBox="0 0 652 652" style="enable-background:new 0 0 652 652;" xml:space="preserve">
<style type="text/css">
	.st0{fill:#E2271F;}
	.st1{fill:#181E4F;}
</style>
<path class="st0" d="M502.2,381.5c-5.4,0-9.7-4.3-9.7-9.7s4.3-9.7,9.7-9.7c5.4,0,9.7,4.3,9.7,9.7S507.6,381.5,502.2,381.5
	 M615.2,371.8c0-5.2-4.3-9.5-9.5-9.5c-5.2,0-9.5,4.3-9.5,9.5s4.3,9.5,9.5,9.5C611,381.3,615.2,377.1,615.2,371.8 M570,371.8
	c0-8.8-7.2-16-16-16c-8.8,0-16,7.2-16,16c0,8.8,7.2,16,16,16C562.8,387.8,570,380.7,570,371.8 M515.8,320.1
	c0-7.5-6.1-13.6-13.6-13.6c-7.5,0-13.6,6.1-13.6,13.6c0,7.5,6.1,13.6,13.6,13.6C509.7,333.7,515.8,327.6,515.8,320.1 M621.6,320.1
	c0-8.8-7.1-15.9-15.9-15.9c-8.8,0-15.9,7.1-15.9,15.9c0,8.8,7.1,15.9,15.9,15.9C614.5,336,621.6,328.9,621.6,320.1 M572.3,320.1
	c0-10.1-8.2-18.3-18.3-18.3c-10.1,0-18.3,8.2-18.3,18.3c0,10.1,8.2,18.3,18.3,18.3C564.1,338.4,572.3,330.2,572.3,320.1
	 M620.3,268.4c0-8-6.5-14.5-14.6-14.5c-8,0-14.5,6.5-14.5,14.5c0,8,6.5,14.5,14.5,14.5C613.8,282.9,620.3,276.4,620.3,268.4
	 M564.6,268.4c0-5.8-4.7-10.6-10.6-10.6c-5.8,0-10.6,4.7-10.6,10.6c0,5.8,4.7,10.6,10.6,10.6C559.8,278.9,564.6,274.2,564.6,268.4
	 M511.7,268.4c0-5.2-4.3-9.5-9.5-9.5c-5.2,0-9.5,4.3-9.5,9.5s4.3,9.5,9.5,9.5C507.5,277.9,511.7,273.6,511.7,268.4"/>
<path class="st1" d="M259.4,383.7h-4.1l-2.3-6h-10.7l-2.3,6h-4l9.3-23.7h4.8L259.4,383.7z M243.6,374h7.9l-4-10.2L243.6,374z
	 M269.8,360h3.8v23.7h-3.8V360z M296.6,360c5.5,0,8.4,2.4,8.4,6.9c0,4-3.1,6.7-7.9,6.9l7.8,10h-4.7l-7.5-10h-1.9v10h-3.8V360H296.6z
	 M290.7,363.6v6.7h5.8c3.1,0,4.5-1.1,4.5-3.4c0-2.3-1.5-3.3-4.5-3.3H290.7z M334.4,383.7h-16.9V360h3.8V380h13.1V383.7z M345,360
	h3.8v23.7H345V360z M378.4,383.7l-13.2-17.1l0,17.1h-3.8V360h3.5l13.2,17.1V360h3.8v23.7H378.4z M413.1,383.7h-17.3V360h17.1v3.6
	h-13.2v6.4h12.8v3.6h-12.8v6.5h13.5V383.7z M435,370.1l-1.6-0.2c-3.1-0.4-4.9-1.2-4.9-3.2c0-2.2,2.2-3.5,5.3-3.5
	c2.1,0,5.4,0.6,7.7,1.4v-3.7c0,0-3.6-1.3-7.7-1.3c-5.1,0-9.3,2.6-9.3,7.4c0,4.4,3.5,6.1,7,6.5l1.8,0.3c3.5,0.5,5.3,1.3,5.3,3.2
	c0,2.2-2.4,3.5-5.5,3.5c-3.3,0-6.8-1.5-8.5-2.3v3.8c2.6,1.4,5.6,2.1,8.5,2.1c5.1,0,9.5-2.6,9.5-7.5
	C442.6,372.2,438.8,370.6,435,370.1 M21.6,255.9h12.3v27.7c4.3-4.6,11.5-7.4,19.5-7.4c16.5,0,29.2,12.2,29.2,29.5
	c0,17.2-12.8,29.3-30.4,29.3c-16.9,0-30.5-11.2-30.5-32.7V255.9z M51.8,323c10.8,0,18.2-7.2,18.2-17.5c0-10.1-7-17.5-17.5-17.5
	c-10.5,0-18.1,7.2-18.1,18C34.3,316.3,41.4,323,51.8,323 M116.5,276.7c3,0,7.7,0.2,11.3,0.6v11.3c-3.2-0.3-7.2-0.5-9.4-0.5
	c-10.8,0-13.9,4.8-13.9,14.8v31.3H92.3v-37C92.3,287.7,98.6,276.7,116.5,276.7 M162.2,334.8c-18.6,0-26.4-11.9-26.4-24.9v-33.2h12.3
	v31c0,6.6,0.8,15.2,14.1,15.2c12.6,0,14.1-8.3,14.1-15.2v-31h12.3v33.2C188.6,322.9,180.8,334.8,162.2,334.8 M221.8,335
	c-7.7,0-16-1.4-21.8-3.6v-10.8c4.4,1.9,13.1,3.5,20.8,3.5c7.5,0,12.2-2.3,12.2-6.6c0-3.3-2.5-5.1-15.4-7.9c-11-2.4-18-6.4-18-16.5
	c0-11.4,8.9-17.2,24.3-17.2c5.1,0,12.8,0.7,19,2.4v10.7c-5.3-1.3-12.9-2.4-18.5-2.4c-6.8,0-12.1,1.4-12.1,6.2
	c0,3.3,3.5,4.9,14.8,7.3c11.9,2.4,18.5,7.3,18.5,16.9C245.6,328.5,236.2,335,221.8,335 M277.1,335c-7.7,0-16-1.4-21.8-3.6v-10.8
	c4.4,1.9,13.1,3.5,20.8,3.5c7.5,0,12.2-2.3,12.2-6.6c0-3.3-2.5-5.1-15.4-7.9c-11-2.4-18-6.4-18-16.5c0-11.4,8.9-17.2,24.3-17.2
	c5.1,0,12.8,0.7,19,2.4v10.7c-5.3-1.3-12.9-2.4-18.5-2.4c-6.8,0-12.1,1.4-12.1,6.2c0,3.3,3.5,4.9,14.8,7.3
	c11.9,2.4,18.5,7.3,18.5,16.9C300.9,328.5,291.5,335,277.1,335 M359.2,320.2v11.1c-5.1,2.3-11.2,3.6-18.4,3.6
	c-21.1,0-31.9-13.5-31.9-29.2c0-17.5,11.6-29.8,29.7-29.8c13.6,0,25,8.6,25,21c0,8.6-5.4,13.6-16.6,13.6h-25
	c1.9,8.4,8.8,13.1,20.1,13.1C346.3,323.5,353,322.5,359.2,320.2 M346.9,300.4c2.9,0,4.8-1.8,4.8-4.2c0-4.5-4.9-9.3-13-9.3
	c-8.1,0-15.1,4-16.9,13.5H346.9z M385.6,334.1h-12.3v-78.2h12.3V334.1z M418.8,335c-7.7,0-16-1.4-21.8-3.6v-10.8
	c4.4,1.9,13.1,3.5,20.8,3.5c7.5,0,12.2-2.3,12.2-6.6c0-3.3-2.5-5.1-15.4-7.9c-11-2.4-18-6.4-18-16.5c0-11.4,8.9-17.2,24.3-17.2
	c5.1,0,12.8,0.7,19,2.4v10.7c-5.3-1.3-12.9-2.4-18.5-2.4c-6.8,0-12.1,1.4-12.1,6.2c0,3.3,3.5,4.9,14.8,7.3
	c11.9,2.4,18.5,7.3,18.5,16.9C442.6,328.5,433.2,335,418.8,335"/>
</svg>
